# xmcd
#
# Track frame offsets: 
#        150
#        26014
#        53877
#        68805
#        93391
#        112494
#        134331
#        156836
#        172562
#        215948
#
# Disc length: 3405 seconds
#
# Revision: 0
# Processed by: cddbd v1.5.2PL0 Copyright (c) Steve Scherf et al.
# Submitted via: ExactAudioCopy v1.2
#
DISCID=900d4b0a
DTITLE=Denise LaSalle - Mississippi Woman Steppin' Out Live
DYEAR=2019
DGENRE=Blues
TTITLE0=Juke Joints
TTITLE1=Blues Party Tonight
TTITLE2=Give Me the Strongest Whiskey
TTITLE3=You Can Have My Husband
TTITLE4=Drop That Zero
TTITLE5=Mississippi Woman
TTITLE6=This Thing Called Love
TTITLE7=Lady in the Streets
TTITLE8=Downhome Blues-Steppin' In
TTITLE9=My Toot Toot
EXTD=
EXTT0=
EXTT1=
EXTT2=
EXTT3=
EXTT4=
EXTT5=
EXTT6=
EXTT7=
EXTT8=
EXTT9=
PLAYORDER=
